<mxfile host="app.diagrams.net" modified="2024-05-16T02:55:54.162Z" agent="Mozilla/5.0 (Windows NT 10.0; Win64; x64) AppleWebKit/537.36 (KHTML, like Gecko) Chrome/124.0.0.0 Safari/537.36" etag="kxyitf3xHY9EVbkEsYQ3" version="24.4.2" type="device">
  <diagram name="ページ1" id="pGYR23bRDNQKbLXvwWUq">
    <mxGraphModel dx="2074" dy="1106" grid="1" gridSize="10" guides="1" tooltips="1" connect="1" arrows="1" fold="1" page="1" pageScale="1" pageWidth="827" pageHeight="1169" math="0" shadow="0">
      <root>
        <mxCell id="0" />
        <mxCell id="1" parent="0" />
        <mxCell id="IkprI8HKpVjri-fACo05-2" value="&lt;font style=&quot;font-size: 15px;&quot;&gt;&lt;b&gt;internetgateway&lt;/b&gt;&lt;/font&gt;" style="text;html=1;strokeColor=none;fillColor=none;align=center;verticalAlign=middle;whiteSpace=wrap;rounded=0;" parent="1" vertex="1">
          <mxGeometry x="660" y="288" width="200" height="30" as="geometry" />
        </mxCell>
        <mxCell id="uyEi14HVC9VFbsCsnYhN-1" value="" style="ellipse;shape=cloud;whiteSpace=wrap;html=1;" parent="1" vertex="1">
          <mxGeometry x="700" y="10" width="120" height="80" as="geometry" />
        </mxCell>
        <mxCell id="uyEi14HVC9VFbsCsnYhN-55" value="&lt;font style=&quot;font-size: 13px;&quot;&gt;AWS Cloud&lt;/font&gt;" style="points=[[0,0],[0.25,0],[0.5,0],[0.75,0],[1,0],[1,0.25],[1,0.5],[1,0.75],[1,1],[0.75,1],[0.5,1],[0.25,1],[0,1],[0,0.75],[0,0.5],[0,0.25]];outlineConnect=0;gradientColor=none;html=1;whiteSpace=wrap;fontSize=13;fontStyle=0;container=1;pointerEvents=0;collapsible=0;recursiveResize=0;shape=mxgraph.aws4.group;grIcon=mxgraph.aws4.group_aws_cloud_alt;strokeColor=#232F3E;fillColor=none;verticalAlign=top;align=left;spacingLeft=30;fontColor=#232F3E;dashed=0;strokeWidth=1;" parent="1" vertex="1">
          <mxGeometry x="51" y="150" width="1420" height="970" as="geometry" />
        </mxCell>
        <mxCell id="uyEi14HVC9VFbsCsnYhN-56" value="&lt;font style=&quot;font-size: 15px;&quot;&gt;Availability Zone A&lt;/font&gt;" style="fillColor=none;strokeColor=#147EBA;dashed=1;verticalAlign=top;fontStyle=0;fontColor=#147EBA;whiteSpace=wrap;html=1;" parent="uyEi14HVC9VFbsCsnYhN-55" vertex="1">
          <mxGeometry x="94" y="30" width="1230" height="580" as="geometry" />
        </mxCell>
        <mxCell id="uyEi14HVC9VFbsCsnYhN-59" value="&lt;font style=&quot;font-size: 15px;&quot;&gt;Public subnet&lt;br&gt;(10.0.100.0/24)&lt;/font&gt;" style="points=[[0,0],[0.25,0],[0.5,0],[0.75,0],[1,0],[1,0.25],[1,0.5],[1,0.75],[1,1],[0.75,1],[0.5,1],[0.25,1],[0,1],[0,0.75],[0,0.5],[0,0.25]];outlineConnect=0;gradientColor=none;html=1;whiteSpace=wrap;fontSize=12;fontStyle=0;container=1;pointerEvents=0;collapsible=0;recursiveResize=0;shape=mxgraph.aws4.group;grIcon=mxgraph.aws4.group_security_group;grStroke=0;strokeColor=#7AA116;fillColor=#F2F6E8;verticalAlign=top;align=left;spacingLeft=30;fontColor=#248814;dashed=0;" parent="uyEi14HVC9VFbsCsnYhN-55" vertex="1">
          <mxGeometry x="110" y="210" width="1210" height="380" as="geometry" />
        </mxCell>
        <mxCell id="uyEi14HVC9VFbsCsnYhN-58" value="&lt;font style=&quot;font-size: 15px;&quot;&gt;VPC&lt;br&gt;&lt;/font&gt;" style="points=[[0,0],[0.25,0],[0.5,0],[0.75,0],[1,0],[1,0.25],[1,0.5],[1,0.75],[1,1],[0.75,1],[0.5,1],[0.25,1],[0,1],[0,0.75],[0,0.5],[0,0.25]];outlineConnect=0;gradientColor=none;html=1;whiteSpace=wrap;fontSize=12;fontStyle=0;container=1;pointerEvents=0;collapsible=0;recursiveResize=0;shape=mxgraph.aws4.group;grIcon=mxgraph.aws4.group_vpc2;strokeColor=#8C4FFF;fillColor=none;verticalAlign=top;align=left;spacingLeft=30;fontColor=#AAB7B8;dashed=0;" parent="uyEi14HVC9VFbsCsnYhN-55" vertex="1">
          <mxGeometry x="40" y="100" width="1360" height="870" as="geometry" />
        </mxCell>
        <mxCell id="uyEi14HVC9VFbsCsnYhN-102" value="d" style="fillColor=none;strokeColor=#FF3333;dashed=1;verticalAlign=middle;fontStyle=0;fontColor=#5A6C86;whiteSpace=wrap;html=1;strokeWidth=4;labelPosition=left;verticalLabelPosition=middle;align=right;" parent="uyEi14HVC9VFbsCsnYhN-58" vertex="1">
          <mxGeometry x="439" y="200" width="510" height="230" as="geometry" />
        </mxCell>
        <mxCell id="uyEi14HVC9VFbsCsnYhN-65" value="" style="sketch=0;points=[[0,0,0],[0.25,0,0],[0.5,0,0],[0.75,0,0],[1,0,0],[0,1,0],[0.25,1,0],[0.5,1,0],[0.75,1,0],[1,1,0],[0,0.25,0],[0,0.5,0],[0,0.75,0],[1,0.25,0],[1,0.5,0],[1,0.75,0]];outlineConnect=0;fontColor=#232F3E;fillColor=#ED7100;strokeColor=#ffffff;dashed=0;verticalLabelPosition=bottom;verticalAlign=top;align=center;html=1;fontSize=12;fontStyle=0;aspect=fixed;shape=mxgraph.aws4.resourceIcon;resIcon=mxgraph.aws4.ec2;" parent="uyEi14HVC9VFbsCsnYhN-58" vertex="1">
          <mxGeometry x="630" y="242" width="78" height="78" as="geometry" />
        </mxCell>
        <mxCell id="5FLwaWaA58DdxZSK5bTK-1" value="" style="sketch=0;points=[[0,0,0],[0.25,0,0],[0.5,0,0],[0.75,0,0],[1,0,0],[0,1,0],[0.25,1,0],[0.5,1,0],[0.75,1,0],[1,1,0],[0,0.25,0],[0,0.5,0],[0,0.75,0],[1,0.25,0],[1,0.5,0],[1,0.75,0]];outlineConnect=0;fontColor=#232F3E;fillColor=#8C4FFF;strokeColor=#ffffff;dashed=0;verticalLabelPosition=bottom;verticalAlign=top;align=center;html=1;fontSize=12;fontStyle=0;aspect=fixed;shape=mxgraph.aws4.resourceIcon;resIcon=mxgraph.aws4.route_53;" parent="uyEi14HVC9VFbsCsnYhN-58" vertex="1">
          <mxGeometry x="708" y="540" width="70" height="70" as="geometry" />
        </mxCell>
        <mxCell id="5FLwaWaA58DdxZSK5bTK-6" value="&lt;font style=&quot;font-size: 13px;&quot;&gt;&lt;b&gt;Route53&lt;/b&gt;&lt;/font&gt;" style="text;html=1;strokeColor=none;fillColor=none;align=center;verticalAlign=middle;whiteSpace=wrap;rounded=0;" parent="uyEi14HVC9VFbsCsnYhN-58" vertex="1">
          <mxGeometry x="708" y="610" width="72" height="20" as="geometry" />
        </mxCell>
        <mxCell id="XtVxZ-sYTlMlM5ZTxt7x-2" value="" style="sketch=0;points=[[0,0,0],[0.25,0,0],[0.5,0,0],[0.75,0,0],[1,0,0],[0,1,0],[0.25,1,0],[0.5,1,0],[0.75,1,0],[1,1,0],[0,0.25,0],[0,0.5,0],[0,0.75,0],[1,0.25,0],[1,0.5,0],[1,0.75,0]];outlineConnect=0;fontColor=#232F3E;fillColor=#DD344C;strokeColor=#ffffff;dashed=0;verticalLabelPosition=bottom;verticalAlign=top;align=center;html=1;fontSize=12;fontStyle=0;aspect=fixed;shape=mxgraph.aws4.resourceIcon;resIcon=mxgraph.aws4.simple_email_service;" parent="uyEi14HVC9VFbsCsnYhN-58" vertex="1">
          <mxGeometry x="829" y="538" width="74" height="74" as="geometry" />
        </mxCell>
        <mxCell id="XtVxZ-sYTlMlM5ZTxt7x-3" value="&lt;span style=&quot;font-size: 13px;&quot;&gt;&lt;b&gt;SES&lt;br&gt;&lt;/b&gt;&lt;/span&gt;" style="text;html=1;strokeColor=none;fillColor=none;align=center;verticalAlign=middle;whiteSpace=wrap;rounded=0;" parent="uyEi14HVC9VFbsCsnYhN-58" vertex="1">
          <mxGeometry x="831" y="614" width="72" height="20" as="geometry" />
        </mxCell>
        <mxCell id="D5oi2q8YTBtj9BELDo-d-11" value="" style="sketch=0;outlineConnect=0;fontColor=#232F3E;gradientColor=none;fillColor=#232F3D;strokeColor=none;dashed=0;verticalLabelPosition=bottom;verticalAlign=top;align=center;html=1;fontSize=12;fontStyle=0;aspect=fixed;pointerEvents=1;shape=mxgraph.aws4.users;" vertex="1" parent="uyEi14HVC9VFbsCsnYhN-58">
          <mxGeometry x="1072" y="536" width="78" height="78" as="geometry" />
        </mxCell>
        <mxCell id="D5oi2q8YTBtj9BELDo-d-14" style="edgeStyle=orthogonalEdgeStyle;rounded=1;orthogonalLoop=1;jettySize=auto;html=1;strokeColor=#3333FF;curved=0;strokeWidth=2;entryX=0;entryY=0.5;entryDx=0;entryDy=0;entryPerimeter=0;exitX=1;exitY=0.5;exitDx=0;exitDy=0;exitPerimeter=0;" edge="1" parent="uyEi14HVC9VFbsCsnYhN-58" source="5FLwaWaA58DdxZSK5bTK-1" target="XtVxZ-sYTlMlM5ZTxt7x-2">
          <mxGeometry relative="1" as="geometry">
            <mxPoint x="683.5" y="330" as="sourcePoint" />
            <Array as="points">
              <mxPoint x="819" y="575" />
            </Array>
            <mxPoint x="718" y="585" as="targetPoint" />
          </mxGeometry>
        </mxCell>
        <mxCell id="D5oi2q8YTBtj9BELDo-d-16" style="edgeStyle=orthogonalEdgeStyle;rounded=1;orthogonalLoop=1;jettySize=auto;html=1;strokeColor=#3333FF;curved=0;strokeWidth=2;" edge="1" parent="uyEi14HVC9VFbsCsnYhN-58" source="XtVxZ-sYTlMlM5ZTxt7x-2" target="D5oi2q8YTBtj9BELDo-d-11">
          <mxGeometry relative="1" as="geometry">
            <mxPoint x="909" y="574.5" as="sourcePoint" />
            <Array as="points" />
            <mxPoint x="960" y="574.5" as="targetPoint" />
          </mxGeometry>
        </mxCell>
        <mxCell id="D5oi2q8YTBtj9BELDo-d-17" value="SESを使用して認証メールやお問い合わせメールを送信" style="shape=callout;whiteSpace=wrap;html=1;perimeter=calloutPerimeter;direction=west;position2=0.99;strokeColor=#FF3333;strokeWidth=3;base=30;size=15;position=0.84;fontSize=13;" vertex="1" parent="uyEi14HVC9VFbsCsnYhN-58">
          <mxGeometry x="889" y="640" width="301" height="90" as="geometry" />
        </mxCell>
        <mxCell id="D5oi2q8YTBtj9BELDo-d-18" value="" style="sketch=0;points=[[0,0,0],[0.25,0,0],[0.5,0,0],[0.75,0,0],[1,0,0],[0,1,0],[0.25,1,0],[0.5,1,0],[0.75,1,0],[1,1,0],[0,0.25,0],[0,0.5,0],[0,0.75,0],[1,0.25,0],[1,0.5,0],[1,0.75,0]];outlineConnect=0;fontColor=#232F3E;fillColor=#ED7100;strokeColor=#ffffff;dashed=0;verticalLabelPosition=bottom;verticalAlign=top;align=center;html=1;fontSize=12;fontStyle=0;aspect=fixed;shape=mxgraph.aws4.resourceIcon;resIcon=mxgraph.aws4.lambda;" vertex="1" parent="uyEi14HVC9VFbsCsnYhN-58">
          <mxGeometry x="299" y="532" width="78" height="78" as="geometry" />
        </mxCell>
        <mxCell id="D5oi2q8YTBtj9BELDo-d-19" value="" style="sketch=0;points=[[0,0,0],[0.25,0,0],[0.5,0,0],[0.75,0,0],[1,0,0],[0,1,0],[0.25,1,0],[0.5,1,0],[0.75,1,0],[1,1,0],[0,0.25,0],[0,0.5,0],[0,0.75,0],[1,0.25,0],[1,0.5,0],[1,0.75,0]];outlineConnect=0;fontColor=#232F3E;fillColor=#E7157B;strokeColor=#ffffff;dashed=0;verticalLabelPosition=bottom;verticalAlign=top;align=center;html=1;fontSize=12;fontStyle=0;aspect=fixed;shape=mxgraph.aws4.resourceIcon;resIcon=mxgraph.aws4.eventbridge;" vertex="1" parent="uyEi14HVC9VFbsCsnYhN-58">
          <mxGeometry x="520" y="532" width="77" height="77" as="geometry" />
        </mxCell>
        <mxCell id="D5oi2q8YTBtj9BELDo-d-20" style="edgeStyle=orthogonalEdgeStyle;rounded=1;orthogonalLoop=1;jettySize=auto;html=1;strokeColor=#3333FF;curved=0;strokeWidth=2;exitX=0.25;exitY=1;exitDx=0;exitDy=0;exitPerimeter=0;entryX=1;entryY=0.5;entryDx=0;entryDy=0;entryPerimeter=0;" edge="1" parent="uyEi14HVC9VFbsCsnYhN-58" source="uyEi14HVC9VFbsCsnYhN-65" target="D5oi2q8YTBtj9BELDo-d-19">
          <mxGeometry relative="1" as="geometry">
            <mxPoint x="683.5" y="330" as="sourcePoint" />
            <Array as="points">
              <mxPoint x="650" y="571" />
            </Array>
            <mxPoint x="718" y="585" as="targetPoint" />
          </mxGeometry>
        </mxCell>
        <mxCell id="D5oi2q8YTBtj9BELDo-d-13" style="edgeStyle=orthogonalEdgeStyle;rounded=1;orthogonalLoop=1;jettySize=auto;html=1;strokeColor=#3333FF;curved=0;strokeWidth=2;entryX=0;entryY=0.5;entryDx=0;entryDy=0;entryPerimeter=0;exitX=0.5;exitY=1;exitDx=0;exitDy=0;exitPerimeter=0;" edge="1" parent="uyEi14HVC9VFbsCsnYhN-58" source="uyEi14HVC9VFbsCsnYhN-65" target="5FLwaWaA58DdxZSK5bTK-1">
          <mxGeometry relative="1" as="geometry">
            <mxPoint x="689" y="320" as="sourcePoint" />
            <Array as="points">
              <mxPoint x="669" y="575" />
            </Array>
            <mxPoint x="723.5" y="575" as="targetPoint" />
          </mxGeometry>
        </mxCell>
        <mxCell id="D5oi2q8YTBtj9BELDo-d-21" style="edgeStyle=orthogonalEdgeStyle;rounded=1;orthogonalLoop=1;jettySize=auto;html=1;strokeColor=#3333FF;curved=0;strokeWidth=2;entryX=1;entryY=0.5;entryDx=0;entryDy=0;entryPerimeter=0;exitX=0;exitY=0.5;exitDx=0;exitDy=0;exitPerimeter=0;" edge="1" parent="uyEi14HVC9VFbsCsnYhN-58" source="D5oi2q8YTBtj9BELDo-d-19" target="D5oi2q8YTBtj9BELDo-d-18">
          <mxGeometry relative="1" as="geometry">
            <mxPoint x="459" y="614" as="sourcePoint" />
            <Array as="points">
              <mxPoint x="509" y="571" />
              <mxPoint x="509" y="570" />
              <mxPoint x="387" y="570" />
            </Array>
            <mxPoint x="510" y="614" as="targetPoint" />
          </mxGeometry>
        </mxCell>
        <mxCell id="D5oi2q8YTBtj9BELDo-d-24" value="eventbridge scheduler、lambdaを使用して毎月1にスナップショットを取得＆前月のスナップショットを削除" style="shape=callout;whiteSpace=wrap;html=1;perimeter=calloutPerimeter;direction=west;position2=0.07;strokeColor=#FF3333;strokeWidth=3;size=30;position=0.16;" vertex="1" parent="uyEi14HVC9VFbsCsnYhN-58">
          <mxGeometry x="79" y="640" width="269" height="120" as="geometry" />
        </mxCell>
        <mxCell id="D5oi2q8YTBtj9BELDo-d-25" value="&lt;span style=&quot;font-size: 13px;&quot;&gt;&lt;b&gt;EventBridge&lt;/b&gt;&lt;/span&gt;" style="text;html=1;strokeColor=none;fillColor=none;align=center;verticalAlign=middle;whiteSpace=wrap;rounded=0;" vertex="1" parent="uyEi14HVC9VFbsCsnYhN-58">
          <mxGeometry x="520" y="609" width="72" height="20" as="geometry" />
        </mxCell>
        <mxCell id="D5oi2q8YTBtj9BELDo-d-26" value="&lt;span style=&quot;font-size: 13px;&quot;&gt;&lt;b&gt;Lambda&lt;/b&gt;&lt;/span&gt;" style="text;html=1;strokeColor=none;fillColor=none;align=center;verticalAlign=middle;whiteSpace=wrap;rounded=0;" vertex="1" parent="uyEi14HVC9VFbsCsnYhN-58">
          <mxGeometry x="302" y="610" width="72" height="20" as="geometry" />
        </mxCell>
        <mxCell id="uyEi14HVC9VFbsCsnYhN-105" value="&lt;font style=&quot;font-size: 14px;&quot;&gt;443/TCP&lt;/font&gt;" style="text;html=1;strokeColor=none;fillColor=none;align=center;verticalAlign=middle;whiteSpace=wrap;rounded=0;fontStyle=1" parent="uyEi14HVC9VFbsCsnYhN-58" vertex="1">
          <mxGeometry x="592" y="210" width="79" height="30" as="geometry" />
        </mxCell>
        <mxCell id="uyEi14HVC9VFbsCsnYhN-117" value="&lt;span style=&quot;font-size: 15px;&quot;&gt;&lt;b&gt;EpiMaker&lt;/b&gt;&lt;/span&gt;" style="text;html=1;strokeColor=none;fillColor=none;align=center;verticalAlign=middle;whiteSpace=wrap;rounded=0;" parent="uyEi14HVC9VFbsCsnYhN-58" vertex="1">
          <mxGeometry x="428.5" y="320" width="491" height="30" as="geometry" />
        </mxCell>
        <mxCell id="D5oi2q8YTBtj9BELDo-d-29" value="" style="sketch=0;points=[[0,0,0],[0.25,0,0],[0.5,0,0],[0.75,0,0],[1,0,0],[0,1,0],[0.25,1,0],[0.5,1,0],[0.75,1,0],[1,1,0],[0,0.25,0],[0,0.5,0],[0,0.75,0],[1,0.25,0],[1,0.5,0],[1,0.75,0]];outlineConnect=0;fontColor=#232F3E;fillColor=#7AA116;strokeColor=#ffffff;dashed=0;verticalLabelPosition=bottom;verticalAlign=top;align=center;html=1;fontSize=12;fontStyle=0;aspect=fixed;shape=mxgraph.aws4.resourceIcon;resIcon=mxgraph.aws4.s3;" vertex="1" parent="uyEi14HVC9VFbsCsnYhN-58">
          <mxGeometry x="99" y="532" width="78" height="78" as="geometry" />
        </mxCell>
        <mxCell id="D5oi2q8YTBtj9BELDo-d-31" style="edgeStyle=orthogonalEdgeStyle;rounded=1;orthogonalLoop=1;jettySize=auto;html=1;strokeColor=#3333FF;curved=0;strokeWidth=2;entryX=1;entryY=0.5;entryDx=0;entryDy=0;entryPerimeter=0;" edge="1" parent="uyEi14HVC9VFbsCsnYhN-58" target="D5oi2q8YTBtj9BELDo-d-29">
          <mxGeometry relative="1" as="geometry">
            <mxPoint x="289" y="571" as="sourcePoint" />
            <Array as="points">
              <mxPoint x="301" y="572" />
              <mxPoint x="301" y="571" />
              <mxPoint x="179" y="571" />
            </Array>
            <mxPoint x="169" y="571.5" as="targetPoint" />
          </mxGeometry>
        </mxCell>
        <mxCell id="D5oi2q8YTBtj9BELDo-d-32" value="&lt;span style=&quot;font-size: 13px;&quot;&gt;&lt;b&gt;S3&lt;/b&gt;&lt;/span&gt;" style="text;html=1;strokeColor=none;fillColor=none;align=center;verticalAlign=middle;whiteSpace=wrap;rounded=0;" vertex="1" parent="uyEi14HVC9VFbsCsnYhN-58">
          <mxGeometry x="99" y="610" width="72" height="20" as="geometry" />
        </mxCell>
        <mxCell id="IkprI8HKpVjri-fACo05-1" value="" style="sketch=0;outlineConnect=0;fontColor=#232F3E;gradientColor=none;fillColor=#8C4FFF;strokeColor=none;dashed=0;verticalLabelPosition=bottom;verticalAlign=top;align=center;html=1;fontSize=12;fontStyle=0;aspect=fixed;pointerEvents=1;shape=mxgraph.aws4.internet_gateway;" parent="uyEi14HVC9VFbsCsnYhN-55" vertex="1">
          <mxGeometry x="670" y="60" width="78" height="78" as="geometry" />
        </mxCell>
        <mxCell id="uyEi14HVC9VFbsCsnYhN-114" value="&lt;font style=&quot;font-size: 14px;&quot;&gt;ElasticIP割り当て&lt;br&gt;→Route53にAレコード登録&lt;/font&gt;" style="shape=callout;whiteSpace=wrap;html=1;perimeter=calloutPerimeter;direction=west;position2=0.99;strokeColor=#FF3333;strokeWidth=3;base=30;size=15;position=0.84;" parent="uyEi14HVC9VFbsCsnYhN-55" vertex="1">
          <mxGeometry x="776" y="395" width="331" height="100" as="geometry" />
        </mxCell>
        <mxCell id="uyEi14HVC9VFbsCsnYhN-80" style="edgeStyle=orthogonalEdgeStyle;rounded=1;orthogonalLoop=1;jettySize=auto;html=1;strokeColor=#3333FF;curved=0;strokeWidth=2;" parent="uyEi14HVC9VFbsCsnYhN-55" target="uyEi14HVC9VFbsCsnYhN-65" edge="1" source="IkprI8HKpVjri-fACo05-1">
          <mxGeometry relative="1" as="geometry">
            <mxPoint x="579" y="150" as="sourcePoint" />
            <Array as="points" />
            <mxPoint x="579" y="320" as="targetPoint" />
          </mxGeometry>
        </mxCell>
        <mxCell id="D5oi2q8YTBtj9BELDo-d-5" value="&lt;font style=&quot;font-size: 14px;&quot;&gt;CertBotを使用して、証明書割り当て、HTTPS化&lt;br&gt;&lt;/font&gt;" style="shape=callout;whiteSpace=wrap;html=1;perimeter=calloutPerimeter;direction=east;position2=0;strokeColor=#FF3333;strokeWidth=3;size=20;position=0.12;" vertex="1" parent="uyEi14HVC9VFbsCsnYhN-55">
          <mxGeometry x="776" y="260" width="331" height="100" as="geometry" />
        </mxCell>
        <mxCell id="D5oi2q8YTBtj9BELDo-d-6" value="&lt;span style=&quot;font-size: 14px;&quot;&gt;cronで毎月2日と20日に更新処理&lt;/span&gt;" style="shape=callout;whiteSpace=wrap;html=1;perimeter=calloutPerimeter;direction=east;position2=0;strokeColor=#FF3333;strokeWidth=3;size=20;position=0.12;" vertex="1" parent="uyEi14HVC9VFbsCsnYhN-55">
          <mxGeometry x="899" y="150" width="331" height="100" as="geometry" />
        </mxCell>
        <mxCell id="XtVxZ-sYTlMlM5ZTxt7x-1" value="&lt;font style=&quot;font-size: 14px;&quot;&gt;nginx、mysql、node.js、ceribot等をインストール&lt;br&gt;&lt;/font&gt;" style="shape=callout;whiteSpace=wrap;html=1;perimeter=calloutPerimeter;direction=west;position2=0;strokeColor=#FF3333;strokeWidth=3;size=30;position=0.16;" parent="uyEi14HVC9VFbsCsnYhN-55" vertex="1">
          <mxGeometry x="459" y="395" width="190" height="120" as="geometry" />
        </mxCell>
        <mxCell id="D5oi2q8YTBtj9BELDo-d-27" value="" style="sketch=0;points=[[0,0,0],[0.25,0,0],[0.5,0,0],[0.75,0,0],[1,0,0],[0,1,0],[0.25,1,0],[0.5,1,0],[0.75,1,0],[1,1,0],[0,0.25,0],[0,0.5,0],[0,0.75,0],[1,0.25,0],[1,0.5,0],[1,0.75,0]];outlineConnect=0;fontColor=#232F3E;fillColor=#8C4FFF;strokeColor=#ffffff;dashed=0;verticalLabelPosition=bottom;verticalAlign=top;align=center;html=1;fontSize=12;fontStyle=0;aspect=fixed;shape=mxgraph.aws4.resourceIcon;resIcon=mxgraph.aws4.route_53;" vertex="1" parent="uyEi14HVC9VFbsCsnYhN-55">
          <mxGeometry x="539" y="10" width="70" height="70" as="geometry" />
        </mxCell>
        <mxCell id="D5oi2q8YTBtj9BELDo-d-28" value="&lt;font style=&quot;font-size: 13px;&quot;&gt;&lt;b&gt;Route53&lt;/b&gt;&lt;/font&gt;" style="text;html=1;strokeColor=none;fillColor=none;align=center;verticalAlign=middle;whiteSpace=wrap;rounded=0;" vertex="1" parent="uyEi14HVC9VFbsCsnYhN-55">
          <mxGeometry x="539" y="80" width="72" height="20" as="geometry" />
        </mxCell>
        <mxCell id="B_A87HpZ7wpacxn6n8_z-1" value="2024/5/16&amp;nbsp; &amp;nbsp;Updated by fshuhei." style="text;html=1;align=center;verticalAlign=middle;whiteSpace=wrap;rounded=0;strokeColor=default;strokeWidth=1;fillColor=#33FFFF;" parent="1" vertex="1">
          <mxGeometry x="1390" y="110" width="200" height="25" as="geometry" />
        </mxCell>
        <mxCell id="IkprI8HKpVjri-fACo05-3" value="" style="edgeStyle=orthogonalEdgeStyle;rounded=1;orthogonalLoop=1;jettySize=auto;html=1;strokeColor=#3333FF;curved=0;strokeWidth=2;" parent="1" edge="1">
          <mxGeometry relative="1" as="geometry">
            <mxPoint x="760" y="90" as="sourcePoint" />
            <mxPoint x="760" y="210" as="targetPoint" />
          </mxGeometry>
        </mxCell>
        <mxCell id="XtVxZ-sYTlMlM5ZTxt7x-4" value="&lt;font size=&quot;1&quot; style=&quot;&quot;&gt;&lt;b style=&quot;font-size: 19px;&quot;&gt;EpiMakerインフラ構成図&lt;/b&gt;&lt;/font&gt;" style="text;html=1;strokeColor=none;fillColor=none;align=center;verticalAlign=middle;whiteSpace=wrap;rounded=0;" parent="1" vertex="1">
          <mxGeometry x="160" y="30" width="350" height="60" as="geometry" />
        </mxCell>
      </root>
    </mxGraphModel>
  </diagram>
</mxfile>
